HIERARCHY
ROOT hip
{
  OFFSET 0 0 0
  CHANNELS 6 Xposition Yposition Zposition Zrotation Yrotation Xrotation
  JOINT abdomen
  {
    OFFSET 0 20.6881 -0.73152
    CHANNELS 3 Zrotation Xrotation Yrotation
    JOINT chest
    {
      OFFSET 0 11.7043 -0.48768
      CHANNELS 3 Zrotation Xrotation Yrotation
      JOINT neck
      {
        OFFSET 0 22.1894 -2.19456
        CHANNELS 3 Zrotation Xrotation Yrotation
        JOINT head
        {
          OFFSET -0.24384 7.07133 1.2192
          CHANNELS 3 Zrotation Xrotation Yrotation
          JOINT leftEye
          {
            OFFSET 4.14528 8.04674 8.04672
            CHANNELS 3 Zrotation Xrotation Yrotation
            End Site
            {
              OFFSET 1 0 0
            }
          }
          JOINT rightEye
          {
            OFFSET -3.6576 8.04674 8.04672
            CHANNELS 3 Zrotation Xrotation Yrotation
            End Site
            {
              OFFSET 1 0 0
            }
          }
        }
      }
      JOINT rCollar
      {
        OFFSET -2.68224 19.2634 -4.8768
        CHANNELS 3 Zrotation Xrotation Yrotation
        JOINT rShldr
        {
          OFFSET -8.77824 -1.95073 1.46304
          CHANNELS 3 Zrotation Xrotation Yrotation
          JOINT rForeArm
          {
            OFFSET -28.1742 -1.7115 0.48768
            CHANNELS 3 Zrotation Xrotation Yrotation
            JOINT rHand
            {
              OFFSET -22.5879 0.773209 7.07136
              CHANNELS 3 Zrotation Xrotation Yrotation
              JOINT rThumb1
              {
                OFFSET -1.2192 -0.487915 3.41376
                CHANNELS 3 Zrotation Xrotation Yrotation
                JOINT rThumb2
                {
                  OFFSET -3.37035 -0.52449 3.41376
                  CHANNELS 3 Zrotation Xrotation Yrotation
                  End Site
                  {
                    OFFSET -1.78271 -1.18214 1.43049
                  }
                }
              }
              JOINT rIndex1
              {
                OFFSET -7.75947 0.938293 5.60832
                CHANNELS 3 Zrotation Xrotation Yrotation
                JOINT rIndex2
                {
                  OFFSET -2.54057 -0.884171 1.56538
                  CHANNELS 3 Zrotation Xrotation Yrotation
                  End Site
                  {
                    OFFSET -1.62519 -0.234802 1.16502
                  }
                }
              }
              JOINT rMid1
              {
                OFFSET -8.24714 1.18213 3.41376
                CHANNELS 3 Zrotation Xrotation Yrotation
                JOINT rMid2
                {
                  OFFSET -3.10165 -0.590103 1.0647
                  CHANNELS 3 Zrotation Xrotation Yrotation
                  End Site
                  {
                    OFFSET -2.48547 -0.328903 0.83742
                  }
                }
              }
              JOINT rRing1
              {
                OFFSET -8.82822 0.546677 1.51678
                CHANNELS 3 Zrotation Xrotation Yrotation
                JOINT rRing2
                {
                  OFFSET -2.60934 -0.819778 -0.0198488
                  CHANNELS 3 Zrotation Xrotation Yrotation
                  End Site
                  {
                    OFFSET -2.33842 -0.294052 0.168128
                  }
                }
              }
              JOINT rPinky1
              {
                OFFSET -8.27202 -0.0477905 -0.4584
                CHANNELS 3 Zrotation Xrotation Yrotation
                JOINT rPinky2
                {
                  OFFSET -1.82734 -0.647385 -0.700984
                  CHANNELS 3 Zrotation Xrotation Yrotation
                  End Site
                  {
                    OFFSET -1.69225 -0.51767 -0.607171
                  }
                }
              }
            }
          }
        }
      }
      JOINT lCollar
      {
        OFFSET 2.68224 19.2634 -4.8768
        CHANNELS 3 Zrotation Xrotation Yrotation
        JOINT lShldr
        {
          OFFSET 8.77824 -1.95073 1.46304
          CHANNELS 3 Zrotation Xrotation Yrotation
          JOINT lForeArm
          {
            OFFSET 28.1742 -1.7115 0.48768
            CHANNELS 3 Zrotation Xrotation Yrotation
            JOINT lHand
            {
              OFFSET 22.5879 0.773209 7.07136
              CHANNELS 3 Zrotation Xrotation Yrotation
              JOINT lThumb1
              {
                OFFSET 1.2192 -0.487915 3.41376
                CHANNELS 3 Zrotation Xrotation Yrotation
                JOINT lThumb2
                {
                  OFFSET 3.37035 -0.52449 3.41376
                  CHANNELS 3 Zrotation Xrotation Yrotation
                  End Site
                  {
                    OFFSET 1.78271 -1.18214 1.43049
                  }
                }
              }
              JOINT lIndex1
              {
                OFFSET 7.75947 0.938293 5.60832
                CHANNELS 3 Zrotation Xrotation Yrotation
                JOINT lIndex2
                {
                  OFFSET 2.54057 -0.884171 1.56538
                  CHANNELS 3 Zrotation Xrotation Yrotation
                  End Site
                  {
                    OFFSET 1.62519 -0.234802 1.16502
                  }
                }
              }
              JOINT lMid1
              {
                OFFSET 8.24714 1.18213 3.41376
                CHANNELS 3 Zrotation Xrotation Yrotation
                JOINT lMid2
                {
                  OFFSET 3.10165 -0.590103 1.0647
                  CHANNELS 3 Zrotation Xrotation Yrotation
                  End Site
                  {
                    OFFSET 2.48547 -0.328903 0.83742
                  }
                }
              }
              JOINT lRing1
              {
                OFFSET 8.82822 0.546677 1.51678
                CHANNELS 3 Zrotation Xrotation Yrotation
                JOINT lRing2
                {
                  OFFSET 2.60934 -0.819778 -0.0198488
                  CHANNELS 3 Zrotation Xrotation Yrotation
                  End Site
                  {
                    OFFSET 2.33842 -0.294052 0.168128
                  }
                }
              }
              JOINT lPinky1
              {
                OFFSET 8.27202 -0.0477905 -0.4584
                CHANNELS 3 Zrotation Xrotation Yrotation
                JOINT lPinky2
                {
                  OFFSET 1.82734 -0.647385 -0.700984
                  CHANNELS 3 Zrotation Xrotation Yrotation
                  End Site
                  {
                    OFFSET 1.69225 -0.51767 -0.607171
                  }
                }
              }
            }
          }
        }
      }
    }
  }
  JOINT rButtock
  {
    OFFSET -8.77824 4.35084 1.2192
    CHANNELS 3 Zrotation Xrotation Yrotation
    JOINT rThigh
    {
      OFFSET 0 -1.70687 -2.19456
      CHANNELS 3 Zrotation Xrotation Yrotation
      JOINT rShin
      {
        OFFSET 0 -36.8199 0.73152
        CHANNELS 3 Zrotation Xrotation Yrotation
        JOINT rFoot
        {
          OFFSET 0.73152 -45.1104 -5.12064
          CHANNELS 3 Zrotation Xrotation Yrotation
          End Site
          {
            OFFSET -1.1221 -3.69964 12.103
          }
        }
      }
    }
  }
  JOINT lButtock
  {
    OFFSET 8.77824 4.35084 1.2192
    CHANNELS 3 Zrotation Xrotation Yrotation
    JOINT lThigh
    {
      OFFSET 0 -1.70687 -2.19456
      CHANNELS 3 Zrotation Xrotation Yrotation
      JOINT lShin
      {
        OFFSET 0 -36.8199 0.73152
        CHANNELS 3 Zrotation Xrotation Yrotation
        JOINT lFoot
        {
          OFFSET -0.73152 -45.1104 -5.12064
          CHANNELS 3 Zrotation Xrotation Yrotation
          End Site
          {
            OFFSET 1.1221 -3.69964 12.103
          }
        }
      }
    }
  }
}
MOTION
Frames:	4
Frame Time:	0.03333
0.0 0.0 0.0 0.0 0.0 0.0 0.0 0.0 0.0 0.0 0.0 0.0 0.0 0.0 0.0 0.0 0.0 0.0 0.0 0.0 0.0 0.0 0.0 0.0 0.0 0.0 0.0 0.0 0.0 0.0 0.0 0.0 0.0 0.0 0.0 0.0 0.0 0.0 0.0 0.0 0.0 0.0 0.0 0.0 0.0 0.0 0.0 0.0 0.0 0.0 0.0 0.0 0.0 0.0 0.0 0.0 0.0 0.0 0.0 0.0 0.0 0.0 0.0 0.0 0.0 0.0 0.0 0.0 0.0 0.0 0.0 0.0 0.0 0.0 0.0 0.0 0.0 0.0 0.0 0.0 0.0 0.0 0.0 0.0 0.0 0.0 0.0 0.0 0.0 0.0 0.0 0.0 0.0 0.0 0.0 0.0 0.0 0.0 0.0 0.0 0.0 0.0 0.0 0.0 0.0 0.0 0.0 0.0 0.0 0.0 0.0 0.0 0.0 0.0 0.0 0.0 0.0 0.0 0.0 0.0 0.0 0.0 0.0 0.0 0.0 0.0 0.0 0.0 0.0 0.0 0.0 0.0
-0.5161 50.220200000000006 0.3975 -0.556986 2.999356 -1.533045 0.076897 1.554615 174.568999 3.807625 -7.462986 -146.061653 13.591525 -19.211865 107.619165 0.560218 53.112061 -148.167437 -153.421257 10.406841 42.169424 31.559205 2.250608 7.952534 126.562736 -53.164402 123.622264 110.011078 -0.941744 -104.035271 -12.537432 -25.915041 130.306297 -154.967699 25.130174 -66.569204 -12.287713 -12.81692 -173.578178 66.627121 -59.039332 -155.958746 165.666321 0.993491 -66.409593 -171.600222 -0.129784 -100.509519 -158.179025 44.888634 139.301592 167.525497 -42.251078 -91.551525 -175.335407 -2.791509 -179.134046 65.043186 -56.206876 51.598039 144.964156 10.571872 -123.101372 -75.255269 -17.798914 -10.253996 65.24441 -76.922896 156.928927 160.016288 -2.028209 179.421698 -3.412755 -9.024899 -120.520037 38.990343 3.214783 86.001182 -5.781481 -42.575611 -153.451685 -149.002443 -38.17612 107.397573 136.236857 -78.593203 145.182719 -150.598073 -38.200301 173.016159 -156.089569 5.256585 79.203636 42.918216 34.953132 87.280482 85.437579 -8.224875 48.845781 -28.135961 -19.099759 14.59304 139.025487 -35.911459 84.522586 54.021512 67.648196 -124.598518 -19.707932 -45.499051 -26.56795 2.004952 50.096766 0.783202 -9.492188 -0.322265 -40.070288 95.823315 -21.336233 -88.7005 47.24814 -10.919965 86.078152 8.797105 46.029831 16.347252 -7.490746 -1.357936 -80.304467 92.347552 49.96794 -120.170922
0.2742 71.1281 -0.164 2.272813 25.124937 1.735026 -4.240997 13.718979 -8.447297 3.69718 -7.640503 4.002882 -2.868913 21.874666 -116.717617 51.280964 11.928246 90.821768 123.590914 25.616148 -45.945291 -39.153985 -0.575262 1.617486 2.277646 16.374889 17.626178 92.174215 -65.518068 37.463058 157.948191 -33.152647 41.62088 157.969534 13.614653 151.859853 -168.695489 14.281939 70.226313 97.691293 -58.078588 -85.822742 -105.708347 71.434263 61.947139 10.442626 31.469089 30.270791 -167.053302 -43.797778 173.041568 -176.044138 1.146621 -179.678388 -100.57673 -4.906092 -156.349279 24.034104 0.828934 36.845936 17.417732 11.494154 -32.793147 -66.785447 -34.568794 8.261158 92.758091 81.52929 -120.285559 -81.98649 -37.487207 -92.273676 -174.045236 4.842842 -48.617399 158.473882 -10.388806 -112.869877 54.163934 34.148504 -70.50001 130.957745 -68.741694 129.05302 105.90285 -17.384519 -164.353004 36.55114 -33.34142 131.011169 154.862408 6.756714 -61.123106 -129.024477 19.175454 -54.905563 -48.797814 2.580075 -0.447761 -146.379093 15.260999 145.607413 -7.547338 -23.198535 -48.954077 -164.411706 24.099317 63.246156 -94.85743 73.029743 -41.11548 111.294841 20.742579 -52.344009 -31.567409 0.917233 95.961183 42.596007 2.060174 -31.976017 -40.409953 -19.816138 -63.412844 22.70241 39.076389 62.578841 8.920234 23.862087 29.645791 -80.083144 10.332255 32.669321
2.4128 67.3326 -1.9755000000000003 6.717156 22.438954 5.71885 -15.733475 9.086541 -109.675175 1.399374 12.115105 103.63304 1.066036 14.614323 64.552199 -28.686252 -0.726057 -86.981023 48.205293 -3.545932 -7.915963 177.849753 0.143929 -7.657968 -169.027255 -33.768712 142.834407 -179.162083 13.039187 179.870034 -19.479306 -44.064479 58.762308 -4.946359 3.085407 7.346051 -164.959567 21.142216 73.778695 -161.913712 -73.221769 -24.611179 0.826184 -3.199471 -7.816487 11.515086 36.671538 -17.669827 -0.99039 -87.14572 -45.769959 -16.943423 41.270791 30.022208 7.815596 10.76539 -12.058431 -42.87776 -73.188808 -108.74634 -120.703883 1.093859 -114.980666 66.560866 -51.984664 -4.146423 -0.989194 51.281603 -6.955256 -66.416949 -0.945429 -47.997977 6.590917 -8.91047 -101.086949 13.190042 -21.782706 16.355113 -128.505736 -48.844846 -38.957329 -10.679117 -23.297324 -26.222703 54.065501 -66.820727 110.368281 154.107321 -56.283419 -83.223438 -28.188608 -3.385184 -34.808289 -164.609429 -26.18874 155.022504 92.901526 1.324592 179.889974 -86.064995 29.842153 12.58975 -24.651232 -44.729999 -75.748877 123.462943 55.294526 21.874769 135.897612 60.609563 -1.49686 176.081139 9.956273 56.229836 79.422456 -10.125903 111.191927 -20.228012 13.358248 157.250902 8.141701 -6.050729 21.291418 -3.74025 -15.046441 -123.101117 -44.040487 -20.407974 80.053503 -116.955817 -55.169087 -8.409477
